<svg xmlns="http://www.w3.org/2000/svg" viewBox="0 0 800 500"><defs><linearGradient id="sky" x1="0" x2="0" y1="0" y2="1"><stop offset="0%" stop-color="#8fa8c5"/><stop offset="100%" stop-color="#f2f5f8"/></linearGradient></defs><rect width="800" height="500" fill="url(#sky)"/><path d="M0 315 C130 280 260 272 410 320 C560 366 650 360 800 310 V500 H0 Z" fill="#6f8c68"/><rect x="150" y="158" width="420" height="190" rx="8" fill="#d7bd96"/><polygon points="150,158 260,92 460,92 570,158" fill="#7f6446"/><rect x="294" y="92" width="128" height="66" fill="#dfc8a2"/><polygon points="294,92 358,48 422,92" fill="#7f6446"/><g fill="#715a3c" opacity=".6"><rect x="182" y="200" width="32" height="90"/><rect x="232" y="200" width="32" height="90"/><rect x="282" y="200" width="32" height="90"/><rect x="332" y="200" width="32" height="90"/><rect x="382" y="200" width="32" height="90"/><rect x="432" y="200" width="32" height="90"/><rect x="482" y="200" width="32" height="90"/></g><circle cx="92" cy="168" r="62" fill="#2d5835"/><circle cx="118" cy="152" r="50" fill="#45704b"/><rect x="98" y="198" width="16" height="90" fill="#71583a"/><rect y="368" width="800" height="132" fill="#88ad71"/></svg>