<svg xmlns="http://www.w3.org/2000/svg" viewBox="0 0 800 500"><defs><linearGradient id="sky" x1="0" x2="0" y1="0" y2="1"><stop offset="0%" stop-color="#96b3d1"/><stop offset="100%" stop-color="#edf2f7"/></linearGradient><linearGradient id="stone" x1="0" x2="0" y1="0" y2="1"><stop offset="0%" stop-color="#dfc8a3"/><stop offset="100%" stop-color="#b99464"/></linearGradient></defs><rect width="800" height="500" fill="url(#sky)"/><rect y="340" width="800" height="160" fill="#3d6a3f"/><rect y="375" width="800" height="125" fill="#8eb27a"/><path d="M0 310 C150 260 260 275 430 325 C560 362 650 340 800 295 V500 H0 Z" fill="#6d8462"/><rect x="170" y="150" width="300" height="190" rx="6" fill="url(#stone)"/><rect x="470" y="185" width="110" height="155" rx="4" fill="#cfb085"/><polygon points="170,150 320,78 470,150" fill="#7c6043"/><polygon points="470,185 525,145 580,185" fill="#7c6043"/><g fill="#70573a" opacity=".6"><rect x="205" y="200" width="30" height="82"/><rect x="255" y="200" width="30" height="82"/><rect x="305" y="200" width="30" height="82"/><rect x="355" y="200" width="30" height="82"/><rect x="405" y="200" width="30" height="82"/><rect x="505" y="225" width="20" height="70"/></g><path d="M0 430 H800" stroke="#d6dfd0" stroke-width="10" opacity=".7"/></svg>