<svg xmlns="http://www.w3.org/2000/svg" viewBox="0 0 800 500"><defs><linearGradient id="sky" x1="0" x2="0" y1="0" y2="1"><stop offset="0%" stop-color="#89a9c8"/><stop offset="100%" stop-color="#e9f0f6"/></linearGradient></defs><rect width="800" height="500" fill="url(#sky)"/><path d="M0 296 C180 230 310 250 485 318 C610 366 690 360 800 286 V500 H0 Z" fill="#6b855f"/><rect x="210" y="180" width="360" height="142" rx="8" fill="#d6bc97"/><polygon points="210,180 390,114 570,180" fill="#806345"/><rect x="332" y="122" width="116" height="58" fill="#ddc6a0"/><polygon points="332,122 390,78 448,122" fill="#806345"/><g fill="#70573a" opacity=".58"><rect x="240" y="216" width="28" height="70"/><rect x="286" y="216" width="28" height="70"/><rect x="332" y="216" width="28" height="70"/><rect x="378" y="216" width="28" height="70"/><rect x="424" y="216" width="28" height="70"/><rect x="470" y="216" width="28" height="70"/><rect x="516" y="216" width="28" height="70"/></g><rect y="356" width="800" height="144" fill="#587996"/><path d="M0 364 C162 334 334 360 540 408 C630 428 704 432 800 406 V500 H0 Z" fill="#7fa2bf"/><circle cx="110" cy="178" r="58" fill="#345f3b"/><circle cx="138" cy="165" r="46" fill="#4d7b52"/><rect x="118" y="206" width="14" height="88" fill="#6e5539"/></svg>